<svg width="18" height="18" viewBox="0 0 18 18" fill="none" xmlns="http://www.w3.org/2000/svg">
<path fill-rule="evenodd" clip-rule="evenodd" d="M10.2002 6.59986C10.2002 4.61171 8.58847 3 6.60032 3C4.61217 3 3.00046 4.61171 3.00046 6.59986C3.00046 8.58801 4.61217 10.1997 6.60032 10.1997C8.58847 10.1997 10.2002 8.58801 10.2002 6.59986ZM6.60032 1C9.69304 1 12.2002 3.50714 12.2002 6.59986C12.2002 9.69258 9.69304 12.1997 6.60032 12.1997C3.5076 12.1997 1.00046 9.69258 1.00046 6.59986C1.00046 3.50714 3.5076 1 6.60032 1ZM12.0735 11.4589C11.6862 11.0651 11.0531 11.0598 10.6593 11.4471C10.2656 11.8343 10.2603 12.4675 10.6475 12.8613L14.9745 17.2612C15.3618 17.655 15.9949 17.6602 16.3887 17.273C16.7824 16.8857 16.7877 16.2526 16.4005 15.8588L12.0735 11.4589Z" fill="#C4C9D2"/>
</svg>
